<svg width="28" height="28" viewBox="0 0 28 28" fill="none" xmlns="http://www.w3.org/2000/svg">
<g clip-path="url(#clip0_247_2659)">
<path d="M5.54427 11.3632V11.0715C5.54427 6.72229 9.3312 3.19653 14.0026 3.19653C18.674 3.19653 22.4609 6.72229 22.4609 11.0715V11.3632M14.0026 22.9049V23.6132C14.0026 24.2575 14.5249 24.7799 15.1693 24.7799H17.5026C20.4021 24.7799 22.7526 22.4294 22.7526 19.5299M4.96094 11.3632H6.71094V18.9465H4.96094C3.99444 18.9465 3.21094 18.163 3.21094 17.1965V13.1132C3.21094 12.1467 3.99444 11.3632 4.96094 11.3632ZM21.2943 11.3632H23.0443C24.0108 11.3632 24.7943 12.1467 24.7943 13.1132V17.1965C24.7943 18.163 24.0108 18.9465 23.0443 18.9465H21.2943V11.3632Z" stroke="white" stroke-width="1.75" stroke-linecap="round" stroke-linejoin="round"/>
</g>
<defs>
<clipPath id="clip0_247_2659">
<rect width="28" height="28" fill="white"/>
</clipPath>
</defs>
</svg>
